<svg id="Layer_1" data-name="Layer 1" xmlns="http://www.w3.org/2000/svg" viewBox="0 0 267.11 109.04"><path d="M50.79,7.38V7h9.35A34.7,34.7,0,0,1,66,7.35a10,10,0,0,1,3.27,1.31,8.09,8.09,0,0,1,2.66,2.78A7.82,7.82,0,0,1,73,15.58q0,4.57-4.49,7.2A8.94,8.94,0,0,1,74.35,26a9.77,9.77,0,0,1,2,6.18,11.63,11.63,0,0,1-1.7,6.18,8.66,8.66,0,0,1-3.88,3.7,16.34,16.34,0,0,1-6.12.92H50.74v-.37c1.11,0,1.82-.22,2.12-.67a7.49,7.49,0,0,0,.47-3.43V11.43a21.46,21.46,0,0,0-.11-2.66,1.38,1.38,0,0,0-.72-1A3.53,3.53,0,0,0,50.79,7.38Zm6.69.39v15.8h4.37q4.44,0,5.9-2.54A10.22,10.22,0,0,0,69.2,16a8.5,8.5,0,0,0-1.13-4.53A6.92,6.92,0,0,0,64.79,8.7a16.79,16.79,0,0,0-6.36-.93Zm2.81,16.55H57.48v11.4a16,16,0,0,0,.18,3.08,4,4,0,0,0,.83,1.49,4.5,4.5,0,0,0,2.09,1.26,14.18,14.18,0,0,0,4.15.47c2.8,0,4.78-.64,5.93-1.94s1.74-3.21,1.74-5.75a12.16,12.16,0,0,0-1.54-6.44,6.32,6.32,0,0,0-3.48-3A30.89,30.89,0,0,0,60.29,24.32Z"/><path d="M89.19,7v.37a3.63,3.63,0,0,0-1.57.22,1.42,1.42,0,0,0-1,.85,13.54,13.54,0,0,0-.16,2.66v27.6a11.38,11.38,0,0,0,.19,2.74,1.66,1.66,0,0,0,.71.83,3.72,3.72,0,0,0,1.86.33V43H79.6v-.37c1.2,0,2-.23,2.24-.7a6.93,6.93,0,0,0,.44-3.16V11.43a7.55,7.55,0,0,0-.48-3.36c-.33-.52-1.06-.76-2.2-.69V7Z"/><path d="M110.07,7.48,111.78,12l-.3,0s-.45-.5-1.35-1.44a9.32,9.32,0,0,0-7-3,8,8,0,0,0-5.84,2.12,6.84,6.84,0,0,0-2.16,5.09,5.92,5.92,0,0,0,1,3.45c.68,1,2.09,1.9,4.23,2.76,3.69,1.24,6.22,2.18,7.58,2.8A11.73,11.73,0,0,1,111.83,27a8.6,8.6,0,0,1,1.9,5.76,11.46,11.46,0,0,1-.34,2.79,9.44,9.44,0,0,1-1.1,2.56,11.22,11.22,0,0,1-1.82,2.25,8.6,8.6,0,0,1-2.16,1.53,11.6,11.6,0,0,1-3.47.8q-2.37.27-3.12.27h-9.6V32.53h.37q0,5.19,2.44,7.25c1.59,1.36,4.08,2,7.45,2q4.59,0,7-2.18a6.84,6.84,0,0,0,2.38-5.22,5.79,5.79,0,0,0-.83-3.16,8,8,0,0,0-2.32-2.3,28,28,0,0,0-5.64-2.41A30.54,30.54,0,0,1,97.14,24a8.34,8.34,0,0,1-2.79-3.27,9.64,9.64,0,0,1-1.13-4.45,9.44,9.44,0,0,1,2.87-7,10.24,10.24,0,0,1,7.53-2.83,19.93,19.93,0,0,1,3.91.41,19.41,19.41,0,0,1,2.34.54A.49.49,0,0,0,110.07,7.48Z"/><path d="M145.08,5.77l-1.71,4.34H143a4.23,4.23,0,0,0,.1-1,.7.7,0,0,0-.4-.72,4,4,0,0,0-1.28-.15H132V39a7.54,7.54,0,0,0,.3,2.6,1.54,1.54,0,0,0,.83.88,5.75,5.75,0,0,0,1.7.18V43h-9.74v-.37a3.34,3.34,0,0,0,2.3-.71,4.39,4.39,0,0,0,.46-2.44V8.19h-9a6.53,6.53,0,0,0-1.78.15c-.27.11-.41.37-.41.8a3.78,3.78,0,0,0,.19,1h-.36l-1.71-4.34h.36a2.18,2.18,0,0,0,.87,1.06A5.82,5.82,0,0,0,117.9,7h23.86a8.2,8.2,0,0,0,2-.18,1.47,1.47,0,0,0,.91-1.06Z"/><path d="M147,7.38V7h10.21c2.58,0,4.46.06,5.61.17a9.73,9.73,0,0,1,3.55,1.14,6.61,6.61,0,0,1,2.75,2.61A8.14,8.14,0,0,1,170,15a9.25,9.25,0,0,1-1.65,5.21,13.28,13.28,0,0,1-4.65,4.19l2.54,3.91q.82,1.46,4.4,6.41c2.39,3.3,4.23,5.32,5.53,6A7.77,7.77,0,0,0,180,41.83a8.47,8.47,0,0,0,4.15-1.39l.15.48a11.64,11.64,0,0,1-7.61,2.4,8.19,8.19,0,0,1-5.37-1.85q-2.25-1.84-7.81-10.14a.14.14,0,0,1-.05-.1l-3.62-5.56-3.2.09h-2.91V39.51a4.83,4.83,0,0,0,.43,2.38c.29.48,1,.72,2.11.72V43H147v-.37c1.16,0,1.88-.29,2.16-.73a5.53,5.53,0,0,0,.43-2.69V10.62a6.12,6.12,0,0,0-.37-2.3C149,7.71,148.22,7.4,147,7.38Zm6.74.59V24.84h3.77c3,0,5.17-.7,6.6-2.1a7.34,7.34,0,0,0,2.15-5.52,10.64,10.64,0,0,0-2.11-6.29c-1.41-2-3.9-3-7.45-3Z"/><path d="M199.52,6.48a17.16,17.16,0,0,1,12.38,4.6,15.27,15.27,0,0,1,4.81,11.48,21.22,21.22,0,0,1-5.57,14.92q-5.56,6.06-14.77,6.06a16.49,16.49,0,0,1-17-16.6,22.11,22.11,0,0,1,2.29-9.48,19.1,19.1,0,0,1,17.85-11Zm-.15,35.15a15,15,0,0,0,7.33-2,14.76,14.76,0,0,0,5.69-5.48A13.91,13.91,0,0,0,214.46,27a17,17,0,0,0-2.79-9.49,19.84,19.84,0,0,0-7.26-6.69,17.47,17.47,0,0,0-8.23-2.42,14,14,0,0,0-9.71,4,13.08,13.08,0,0,0-4.36,10,19.28,19.28,0,0,0,5.32,13.43Q192.76,41.63,199.37,41.63Z"/><path d="M3.52,61.38V61h9.35a34.54,34.54,0,0,1,5.81.34A10.12,10.12,0,0,1,22,62.66a8.09,8.09,0,0,1,2.66,2.78,7.91,7.91,0,0,1,1.1,4.14q0,4.58-4.5,7.2A8.92,8.92,0,0,1,27.08,80a9.77,9.77,0,0,1,2,6.18,11.54,11.54,0,0,1-1.7,6.18,8.61,8.61,0,0,1-3.88,3.7,16.25,16.25,0,0,1-6.11.92H3.48v-.37c1.1,0,1.81-.22,2.12-.67a7.54,7.54,0,0,0,.46-3.43V65.43A19.59,19.59,0,0,0,6,62.77a1.38,1.38,0,0,0-.72-1.05A3.47,3.47,0,0,0,3.52,61.38Zm6.69.39v15.8h4.37c3,0,4.93-.85,5.9-2.54A10.12,10.12,0,0,0,21.93,70a8.5,8.5,0,0,0-1.12-4.53,7,7,0,0,0-3.28-2.74,16.86,16.86,0,0,0-6.36-.93ZM13,78.32H10.21v11.4a14.92,14.92,0,0,0,.19,3.08,3.82,3.82,0,0,0,.83,1.49,4.46,4.46,0,0,0,2.08,1.26,14.22,14.22,0,0,0,4.15.47c2.8,0,4.78-.64,5.94-1.94a8.41,8.41,0,0,0,1.73-5.75,12.07,12.07,0,0,0-1.54-6.44,6.25,6.25,0,0,0-3.48-3A30.77,30.77,0,0,0,13,78.32Z"/><path d="M49.67,80.42H39.12L33.68,94a7.83,7.83,0,0,0-.57,1.8q0,.81,1.2.81V97H29v-.37a3,3,0,0,0,1.81-.53,6.58,6.58,0,0,0,1.61-2.72l13-32.88h.65L58.88,92.23a13.15,13.15,0,0,0,1,2.31,3.18,3.18,0,0,0,3,2.07V97H54.48v-.37q1.14,0,1.14-.9a5.78,5.78,0,0,0-.56-2,.87.87,0,0,1-.17-.31.65.65,0,0,0-.07-.25Zm-10.21-1h9.73L44.33,67.17Z"/><path d="M65.17,61.38V61h9.35a34.7,34.7,0,0,1,5.81.34,10,10,0,0,1,3.27,1.31,8.09,8.09,0,0,1,2.66,2.78,7.82,7.82,0,0,1,1.1,4.14q0,4.58-4.49,7.2A8.94,8.94,0,0,1,88.73,80a9.77,9.77,0,0,1,2,6.18A11.63,11.63,0,0,1,89,92.36a8.66,8.66,0,0,1-3.88,3.7A16.34,16.34,0,0,1,79,97H65.12v-.37c1.11,0,1.81-.22,2.12-.67a7.49,7.49,0,0,0,.47-3.43V65.43a21.46,21.46,0,0,0-.11-2.66,1.38,1.38,0,0,0-.72-1.05A3.53,3.53,0,0,0,65.17,61.38Zm6.69.39v15.8h4.37c3,0,4.93-.85,5.89-2.54A10.14,10.14,0,0,0,83.58,70a8.5,8.5,0,0,0-1.13-4.53,6.92,6.92,0,0,0-3.28-2.74,16.79,16.79,0,0,0-6.36-.93Zm2.81,16.55H71.86v11.4A16,16,0,0,0,72,92.8a4,4,0,0,0,.83,1.49A4.5,4.5,0,0,0,75,95.55a14.18,14.18,0,0,0,4.15.47c2.8,0,4.78-.64,5.93-1.94s1.74-3.21,1.74-5.75a12.16,12.16,0,0,0-1.54-6.44,6.32,6.32,0,0,0-3.48-3A30.89,30.89,0,0,0,74.67,78.32Z"/><path d="M127.06,97h-6.81V91.43a16.12,16.12,0,0,1-12.39,5.79,11.76,11.76,0,0,1-8.48-3c-2.09-2-3.13-4.77-3.13-8.3V64.38a4.22,4.22,0,0,0-.47-2.48c-.3-.35-1-.52-2.17-.52V61h9.55v.37a3.61,3.61,0,0,0-2.14.48c-.41.31-.62,1.07-.62,2.25V83.86q0,6.21,2.9,8.85a9.51,9.51,0,0,0,6.61,2.65q5.82,0,10.34-5.25V65.77c0-2.13-.19-3.39-.56-3.79a2.31,2.31,0,0,0-1.76-.6h-.34V61h9.47v.37a3.55,3.55,0,0,0-2.21.58,2.83,2.83,0,0,0-.45,1.86V93.1a8.92,8.92,0,0,0,.17,2.26,1.67,1.67,0,0,0,.69.9,3.44,3.44,0,0,0,1.8.35Z"/><path d="M148.3,61.48,150,66l-.29,0s-.46-.5-1.36-1.44a9.32,9.32,0,0,0-7-3,8,8,0,0,0-5.85,2.12,6.84,6.84,0,0,0-2.16,5.09,6,6,0,0,0,1,3.45c.68,1,2.09,1.9,4.24,2.76,3.69,1.24,6.21,2.18,7.57,2.8A11.85,11.85,0,0,1,150.07,81,8.65,8.65,0,0,1,152,86.78a11,11,0,0,1-.34,2.79,9.14,9.14,0,0,1-1.1,2.56,10.88,10.88,0,0,1-1.82,2.25,8.6,8.6,0,0,1-2.16,1.53,11.6,11.6,0,0,1-3.47.8c-1.57.18-2.62.27-3.12.27h-9.6V86.53h.37c0,3.46.85,5.88,2.44,7.25s4.08,2,7.45,2q4.59,0,7-2.18A6.8,6.8,0,0,0,150,88.43a5.79,5.79,0,0,0-.83-3.16,7.83,7.83,0,0,0-2.32-2.3,27.74,27.74,0,0,0-5.64-2.41A30.08,30.08,0,0,1,135.38,78a8.36,8.36,0,0,1-2.8-3.27,9.64,9.64,0,0,1-1.13-4.45,9.44,9.44,0,0,1,2.87-7,10.25,10.25,0,0,1,7.53-2.83,19.93,19.93,0,0,1,3.91.41,19.41,19.41,0,0,1,2.34.54A.49.49,0,0,0,148.3,61.48Z"/><path d="M181.4,79H161.65V92.85a9.58,9.58,0,0,0,.19,2.49,1.81,1.81,0,0,0,.68.9,3,3,0,0,0,1.75.37V97H155v-.37c1.7.11,2.54-.71,2.54-2.47V65.23a7.34,7.34,0,0,0-.4-3.12c-.27-.44-1-.68-2.14-.73V61h9.31v.37a3.47,3.47,0,0,0-2.08.59,2.7,2.7,0,0,0-.54,2V78H181.4V65.16a8,8,0,0,0-.37-3c-.26-.53-1-.79-2.12-.79V61h9.18v.37a3.78,3.78,0,0,0-1.62.26,1.37,1.37,0,0,0-.72.79,11.08,11.08,0,0,0-.19,2.73V92.75a10.44,10.44,0,0,0,.19,2.65,1.8,1.8,0,0,0,.68.87,3,3,0,0,0,1.66.34V97h-9.18v-.37a2.49,2.49,0,0,0,2-.61c.34-.41.5-1.5.5-3.29Z"/><path d="M191.51,61h10.3v.37a3.47,3.47,0,0,0-2.36.5c-.46.38-.69,1.38-.69,3V78.66l21.37-16c.42-.29.63-.56.63-.8s-.48-.44-1.44-.44V61h7.76v.37a9.9,9.9,0,0,0-5.71,2.14L202.75,77.41l18.57,14.1.07,0a.19.19,0,0,1,.08.07.17.17,0,0,0,.1,0,54.85,54.85,0,0,0,5.67,3.84A7.86,7.86,0,0,0,231,96.61V97H218.78v-.37c1.09,0,1.64-.12,1.64-.37s-.45-.66-1.34-1.34L198.76,79.47V92.81a7.18,7.18,0,0,0,.33,2.87,1.87,1.87,0,0,0,.88.77,4.43,4.43,0,0,0,1.8.16V97H191.51v-.37c1.37.06,2.23-.14,2.58-.62a5.82,5.82,0,0,0,.52-3V65.06a6,6,0,0,0-.52-3.1c-.35-.47-1.21-.66-2.58-.58Z"/><path d="M252.19,80.42H241.63L236.19,94a8.13,8.13,0,0,0-.56,1.8c0,.54.4.81,1.19.81V97h-5.34v-.37a3,3,0,0,0,1.8-.53,6.47,6.47,0,0,0,1.61-2.72l13-32.88h.64L261.4,92.23a12.64,12.64,0,0,0,1,2.31,3.19,3.19,0,0,0,3,2.07V97H257v-.37c.77,0,1.15-.3,1.15-.9a6,6,0,0,0-.56-2,.65.65,0,0,1-.17-.31c0-.17-.06-.25-.08-.25Zm-10.21-1h9.73l-4.86-12.25Z"/></svg>
